<svg xmlns="http://www.w3.org/2000/svg" viewBox="176 286 528 328" role="img">
  <path fill="#eb332c" d="M468.7 305.25c12.37 9.41 21.64 21.07 24.3 36.75.12 2.18.2 4.37.25 6.56.03 1.27.06 2.55.1 3.86.06 2.64.11 5.29.17 7.93.23 8.69 1.08 17.08 2.48 25.65l.57 4.02c3.01 18.21 9.36 35.92 18.43 51.98.55.99 1.1 1.98 1.67 3 4.51 7.56 10.26 13.7 16.33 20 .6.66 1.19 1.32 1.81 2 19.88 21.42 52.84 31.4 81.19 33 2.92.1 5.83.16 8.75.21.78.02 1.56.03 2.37.04 3.26.06 6.51.12 9.77.15 18.5.22 33 3.16 46.89 16.31 10.59 10.92 14.65 22.21 14.58 37.25-.25 12.72-4.23 21.31-12.36 31.04-.54.66-1.09 1.32-1.65 2-8.36 9.18-20.25 14.25-32.35 16-2.23.09-4.46.13-6.7.13-1.92.01-1.92.01-3.88.01-1.37 0-2.74-.01-4.11-.01-.7-.01-1.4-.01-2.12-.01-3.5-.02-6.99-.05-10.49-.08-2.15-.02-4.31-.04-6.46-.05C571.95 602.8 523.6 586.08 487 558c-.84-.63-1.68-1.26-2.55-1.91-15.71-12.11-31.92-27.1-42.45-44.09v-2c-3.2 3.12-6.11 6.29-8.87 9.81-4.05 5-8.31 9.74-12.69 14.44-.61.66-1.23 1.32-1.86 2-4.28 4.56-8.8 8.72-13.58 12.75-1.19 1.01-1.19 1.01-2.41 2.05-19.21 15.63-40.5 28.02-63.59 36.95-1.46.59-1.46.59-2.96 1.2-12.56 4.89-25.84 7.76-39.1 9.99-.92.15-1.84.31-2.79.47-3.04.48-6.09.92-9.15 1.34-.64.09-1.28.18-1.94.27-11.47 1.54-22.81 2.07-34.38 2.05-2.71-.01-5.4.02-8.1.04-16.59.06-16.59.06-24.58-3.36-.93-.35-1.86-.71-2.81-1.07-10.89-5.25-22.11-14.95-26.54-26.42-.7-2.29-1.35-4.6-1.96-6.92-.43-2.5-.43-2.5-1.69-3.59-.93-16.91 1.52-30.38 12.75-43.75 9.46-10.01 22.27-16.89 36.2-17.39 1.56-.02 3.11-.03 4.66-.04l5.19-.06 2.73-.03c38.11-.55 71.95-7.21 101.47-32.73.74-.64 1.49-1.28 2.25-1.95 13.41-12.51 22.39-29.12 28.75-46.05.37-.91.37-.91.75-1.83 2.33-5.81 3.61-11.74 4.88-17.86.21-1.02.43-2.04.65-3.09.58-2.74 1.16-5.48 1.72-8.22.27-1.1.27-1.1.54-2.23.68-4.1.75-8.2.89-12.35.07-1.9.15-3.8.22-5.71.12-2.97.23-5.95.32-8.93.1-2.89.22-5.78.34-8.67.02-.88.05-1.76.07-2.66.26-5.93 1.48-10.93 3.62-16.45.29-.82.59-1.65.89-2.5 5.1-12.36 15.44-22.94 27.59-28.47 15.98-6.53 34.59-5.61 49.22 4.22"/>
  <path fill="#49a553" d="M493 372h1c.11.82.22 1.65.33 2.5.44 3.16.89 6.32 1.37 9.47.28 1.89.55 3.79.82 5.68 2.98 18.34 9.35 36.18 18.48 52.35.55.99 1.1 1.98 1.67 3 4.51 7.56 10.26 13.7 16.33 20 .6.66 1.19 1.32 1.8 2 19.89 21.42 52.85 31.4 81.2 33 2.91.1 5.83.16 8.75.21.78.02 1.56.03 2.37.04 3.26.06 6.51.12 9.77.15 18.5.22 33 3.16 46.89 16.31 10.59 10.92 14.65 22.21 14.58 37.25-.25 12.72-4.23 21.31-12.36 31.04-.55.66-1.09 1.32-1.65 2-8.36 9.18-20.25 14.25-32.35 16-2.23.09-4.47.13-6.7.13-1.92.01-1.92.01-3.88.01-1.37 0-2.74-.01-4.11-.02h-2.12c-3.5-.02-7-.05-10.49-.08-2.16-.02-4.31-.04-6.46-.05C571.95 602.8 523.6 586.08 487 558c-.84-.63-1.68-1.26-2.55-1.91-30.89-23.81-30.89-23.81-35.45-37.09-1.84-3.66-1.84-3.66-5-6 .56-5.91 2.94-9.47 6.62-14 1.53-1.99 1.53-1.99 2.13-4.62 1.22-3.29 2.58-5.38 4.63-8.19 2.79-3.86 4.91-7.58 6.7-11.99 1.17-2.8 2.55-5.48 3.92-8.2 1.03-2.18 2.05-4.37 3.06-6.56.51-1.1 1.02-2.19 1.54-3.32 1.2-2.68 2.33-5.38 3.4-8.12h2c-.21-.72-.43-1.45-.65-2.2-.43-3.44.31-4.7 2.03-7.68 2.22-4.11 3.14-7.43 3.62-12.12l2-3c.36-1.66.7-3.33 1-5 .5-.99.5-.99 1-2 .14-.91.29-1.81.44-2.75.56-3.25.56-3.25 1.56-6.06 1.02-3.27 1.38-6.09 1.6-9.51.08-1.17.16-2.35.24-3.56.11-1.82.11-1.82.22-3.68.16-2.42.31-4.84.48-7.26.06-1.06.13-2.13.19-3.23.25-2.72.68-5.29 1.27-7.95"/>
  <path fill="#49a553" d="M608.5 299.563h2.02c10.71.01 19.65 1.08 29.48 5.44 1 .39 2.01.79 3.04 1.2 20.43 8.48 36.31 25.96 45.35 45.86 6.93 18.21 7.84 41.7.61 59.94-10.01 21.98-26.61 37.7-48.9 46.77-16.33 6.03-38.07 5.86-54.1-.77-.94-.38-1.88-.75-2.86-1.14-2.78-1.18-5.45-2.48-8.14-3.86-.95-.48-1.91-.96-2.89-1.46-19.11-10.3-30.88-26.92-39.11-46.54-.34-.79-.67-1.58-1.02-2.39-6.68-17.77-4.51-39.56 3.02-56.61 8.89-19.5 25.68-34.79 45.75-42.32q2.61-.9 5.25-1.68c1.13-.36 2.26-.71 3.42-1.08 6.26-1.52 12.68-1.35 19.08-1.36"/>
  <path fill="#eb332c" d="M322.098 315.21c2.71 2.19 5.32 4.45 7.9 6.79.64.54 1.27 1.08 1.92 1.64 13.43 12.2 21.42 31.32 22.4 49.14.54 16.21-2.73 29.8-10.32 44.22l-1.33 2.6c-4.1 7.44-9.75 13.4-15.67 19.4-.73.74-1.46 1.49-2.22 2.26-16 15.23-38.51 22.48-60.24 21.99-21.31-.9-41.06-10.88-55.54-26.25-13.88-15.57-20.21-35.26-20.12-55.88-.01-.96-.01-1.92-.01-2.91v-5.28c.13-1.93.13-1.93 1.13-2.93.33-1.7.61-3.41.88-5.13.83-4.76 2.03-8.53 4.12-12.87.39-1.05.79-2.1 1.19-3.19 8.57-19.74 26.2-35.2 45.91-43.1 26.48-9.91 56.69-7.14 80 9.5"/>
</svg>
